<?xml version="1.0" encoding="utf-8"?>
<!-- Generator: Adobe Illustrator 25.2.1, SVG Export Plug-In . SVG Version: 6.00 Build 0)  -->
<svg version="1.1" id="Layer_1" xmlns="http://www.w3.org/2000/svg" xmlns:xlink="http://www.w3.org/1999/xlink" x="0px" y="0px"
	 viewBox="0 0 200 165.5" style="enable-background:new 0 0 200 165.5;" xml:space="preserve">
<g>
	<path d="M164.4,99h2.3h0.7h6.5h2.1h24V77.2c0-20.8-12.5-38.8-30.4-46.8C161.6,12.5,143.6,0,122.8,0H0v24v9.1v0.1l6.5,6.5l19.5,19.5
		l0,0h0.1h6.4v-2.7v-24h116.3c5.5,0,10.8,1,15.7,2.9c1.9,4.9,2.9,10.2,2.9,15.7v2.5c0,7.1-5.7,12.8-12.8,12.8H32.6h-8.5H6.5V48.9
		L0,42.4v24.1V73v15.3c0,20.8,12.5,38.8,30.4,46.8c8,17.9,25.9,30.4,46.8,30.4H200v-24v-9.2v0h0l-26-26h-6.5v2.7v24H51.2
		c-5.5,0-10.8-1-15.7-2.9c-1.9-4.9-2.9-10.2-2.9-15.7V99H164.4z M148.8,26.1H26.1v24L6.5,30.5v-24h116.3c15.9,0,29.9,8.4,37.8,20.9
		C156.8,26.5,152.9,26.1,148.8,26.1z M173.9,53.7v-2.5c0-4-0.5-8-1.4-11.7c12.5,7.9,20.9,21.9,20.9,37.8v15.3h-19.5v-6.8
		c0-6.7-3.4-12.6-8.6-16C170.5,66.2,173.9,60.3,173.9,53.7z M51.2,139.4h122.8v-24l19.5,19.5v24H77.2c-15.9,0-29.9-8.4-37.8-20.9
		C43.2,138.9,47.1,139.4,51.2,139.4z M27.4,126c-12.5-7.9-20.9-21.9-20.9-37.8V73h148.1c7,0,12.8,5.7,12.8,12.8v4.7v2.1H26.1v21.8
		C26.1,118.4,26.5,122.3,27.4,126z"/>
</g>
</svg>
